<?xml version="1.0" encoding="iso-8859-1"?>
<!-- Generator: Adobe Illustrator 19.0.0, SVG Export Plug-In . SVG Version: 6.00 Build 0)  -->
<svg version="1.1" id="Capa_1" xmlns="http://www.w3.org/2000/svg" xmlns:xlink="http://www.w3.org/1999/xlink" x="0px" y="0px"
	 viewBox="0 0 340 340" style="enable-background:new 0 0 340 340;" xml:space="preserve">
<g id="XMLID_2392_">
	<polygon id="XMLID_2401_" style="fill:#C6B39D;" points="30,275 30,215 30,214.999 30,185 30,155 170,155 170,125 30,125 30,65 
		30,35.001 30,35 30,5 0,5 0,335 30,335 30,305 170,305 170,275 	"/>
	<polygon id="XMLID_2402_" style="fill:#FF5023;" points="100,215 30,215 30,275 170,275 170,215 	"/>
	<polygon id="XMLID_2403_" style="fill:#BF3C1A;" points="250,215 170,215 170,275 250,275 250,274.999 	"/>
	<path id="XMLID_2404_" style="fill:#A0815C;" d="M310,35v30v60c0,16.568-13.432,30-30,30h30v59.999V215v59.999V275
		c0,16.568-13.432,29.999-30,29.999S250,291.568,250,275h-80v30h140v30h30V35H310z"/>
	<path id="XMLID_2405_" style="fill:#A0815C;" d="M250,125h-80v30h110C263.432,155,250,141.568,250,125z"/>
	<polygon id="XMLID_2406_" style="fill:#FF5023;" points="30,125 170,125 170,65 100,65 30,65 	"/>
	<rect id="XMLID_2407_" x="170" y="65" style="fill:#BF3C1A;" width="80" height="60"/>
	<path id="XMLID_2408_" style="fill:#802812;" d="M280,155c16.568,0,30-13.432,30-30V65h-60v60C250,141.568,263.432,155,280,155z"/>
	<path id="XMLID_2409_" style="fill:#802812;" d="M250,215v59.999V275c0,16.568,13.432,29.999,30,29.999s30-13.431,30-29.999v-0.001
		V215v-0.001h-60V215z"/>
	<path id="XMLID_2410_" style="fill:#802812;" d="M70,185H30v29.999V215h70C100,198.432,86.568,185,70,185z"/>
	<path id="XMLID_2411_" style="fill:#802812;" d="M30,65h70c0-16.568-13.432-30-30-30H30v0.001V65z"/>
</g>
<g>
</g>
<g>
</g>
<g>
</g>
<g>
</g>
<g>
</g>
<g>
</g>
<g>
</g>
<g>
</g>
<g>
</g>
<g>
</g>
<g>
</g>
<g>
</g>
<g>
</g>
<g>
</g>
<g>
</g>
</svg>
