<?xml version="1.0" encoding="iso-8859-1"?>
<!-- Generator: Adobe Illustrator 19.0.0, SVG Export Plug-In . SVG Version: 6.00 Build 0)  -->
<svg xmlns="http://www.w3.org/2000/svg" xmlns:xlink="http://www.w3.org/1999/xlink" version="1.1" id="Layer_1" x="0px" y="0px" viewBox="0 0 512 512" style="enable-background:new 0 0 512 512;" xml:space="preserve" width="512" height="512">
<g>
	<polygon style="fill:#34E0BB;" points="10,222 50,122 462,122 502,222  "/>
	<path style="fill:#FFD077;" d="M368,222l-53.706-104.429C303.061,95.73,280.561,82,256,82h0c-24.561,0-47.061,13.73-58.294,35.571   L144,222H30v240h452V222H368z"/>
	<rect x="10" y="462" style="fill:#B3D7FC;" width="492" height="40"/>
	<rect x="392" y="262" style="fill:#C8E7F9;" width="50" height="40"/>
	<rect x="282" y="262" style="fill:#C8E7F9;" width="60" height="40"/>
	<rect x="170" y="262" style="fill:#C8E7F9;" width="60" height="40"/>
	<rect x="70" y="262" style="fill:#C8E7F9;" width="50" height="40"/>
	<rect x="392" y="342" style="fill:#C8E7F9;" width="50" height="40"/>
	<rect x="70" y="342" style="fill:#C8E7F9;" width="50" height="40"/>
	<rect x="256" y="10" style="fill:#34E0BB;" width="60" height="40"/>
	<rect x="176" y="342" style="fill:#A64C2C;" width="80" height="120"/>
	<rect x="256" y="342" style="fill:#A64C2C;" width="80" height="120"/>
	<rect x="156" y="462" style="fill:#8397AA;" width="200" height="40"/>
	<circle style="fill:#F0F0F0;" cx="256" cy="186" r="40"/>
	<g>
		<path d="M130,412c-5.521,0-10,4.49-10,10c0,5.52,4.479,10,10,10c5.51,0,10-4.48,10-10C140,416.49,135.51,412,130,412z"/>
		<path d="M382,432c5.51,0,10-4.48,10-10c0-5.51-4.49-10-10-10s-10,4.49-10,10C372,427.52,376.49,432,382,432z"/>
		<path d="M502,452h-10V232h10c3.318,0,6.42-1.646,8.28-4.394c1.86-2.748,2.237-6.239,1.005-9.32l-40-100    c-1.52-3.797-5.196-6.286-9.285-6.286H322.654c-11.58-21.726-32.65-36.174-56.654-39.338V60h50c5.522,0,10-4.478,10-10V10    c0-5.522-4.478-10-10-10h-60c-5.522,0-10,4.478-10,10v62.662c-24.003,3.164-45.074,17.612-56.654,39.338H50    c-4.089,0-7.766,2.489-9.285,6.286l-40,100c-1.232,3.081-0.855,6.572,1.005,9.32C3.58,230.354,6.682,232,10,232h10v220H10    c-5.522,0-10,4.478-10,10v40c0,5.522,4.478,10,10,10h492c5.522,0,10-4.478,10-10v-40C512,456.478,507.523,452,502,452z M266,20h40    v20h-40V20z M487.23,212H374.103l-41.144-80H455.23L487.23,212z M56.771,132h122.271l-41.144,80H24.771L56.771,132z M146,492H20    v-20h126V492z M346,492H166v-20h180V492z M186,452V352h60v100H186z M266,452V352h60v100H266z M336,332H176    c-5.522,0-10,4.478-10,10v110H40v-20h50c5.51,0,10-4.48,10-10c0-5.51-4.49-10-10-10H40V232h104c3.747,0,7.18-2.095,8.893-5.427    l53.706-104.429C216.161,103.551,235.091,92,256,92s39.839,11.551,49.401,30.145l53.706,104.429    c1.713,3.332,5.146,5.427,8.893,5.427h104v180h-50c-5.51,0-10,4.49-10,10c0,5.52,4.49,10,10,10h50v20H346V342    C346,336.478,341.523,332,336,332z M492,492H366v-20h126V492z"/>
		<path d="M392,312h50c5.522,0,10-4.478,10-10v-40c0-5.522-4.478-10-10-10h-50c-5.522,0-10,4.478-10,10v40    C382,307.523,386.478,312,392,312z M402,272h30v20h-30V272z"/>
		<path d="M352,302v-40c0-5.522-4.478-10-10-10h-60c-5.522,0-10,4.478-10,10v40c0,5.522,4.478,10,10,10h60    C347.523,312,352,307.523,352,302z M332,292h-40v-20h40V292z"/>
		<path d="M230,252h-60c-5.522,0-10,4.478-10,10v40c0,5.522,4.478,10,10,10h60c5.522,0,10-4.478,10-10v-40    C240,256.478,235.523,252,230,252z M220,292h-40v-20h40V292z"/>
		<path d="M70,312h50c5.522,0,10-4.478,10-10v-40c0-5.522-4.478-10-10-10H70c-5.522,0-10,4.478-10,10v40    C60,307.523,64.478,312,70,312z M80,272h30v20H80V272z"/>
		<path d="M392,392h50c5.522,0,10-4.478,10-10v-40c0-5.522-4.478-10-10-10h-50c-5.522,0-10,4.478-10,10v40    C382,387.523,386.478,392,392,392z M402,352h30v20h-30V352z"/>
		<path d="M130,382v-40c0-5.522-4.478-10-10-10H70c-5.522,0-10,4.478-10,10v40c0,5.522,4.478,10,10,10h50    C125.523,392,130,387.523,130,382z M110,372H80v-20h30V372z"/>
		<path d="M68.286,191.285c1.218,0.487,2.475,0.718,3.711,0.718c3.968,0,7.724-2.379,9.288-6.289l8-20    c2.051-5.128-0.443-10.947-5.571-12.999c-5.127-2.052-10.947,0.442-12.999,5.571l-8,20    C60.664,183.414,63.158,189.234,68.286,191.285z"/>
		<path d="M114.286,191.285c1.218,0.487,2.475,0.718,3.711,0.718c3.968,0,7.724-2.379,9.288-6.289l8-20    c2.051-5.128-0.443-10.947-5.571-12.999c-5.126-2.052-10.947,0.442-12.999,5.571l-8,20    C106.664,183.414,109.158,189.234,114.286,191.285z"/>
		<path d="M430.715,185.714c1.564,3.91,5.319,6.289,9.288,6.289c1.236,0,2.493-0.231,3.711-0.718    c5.128-2.052,7.622-7.871,5.571-12.999l-8-20c-2.052-5.129-7.873-7.62-12.999-5.571c-5.128,2.052-7.622,7.871-5.571,12.999    L430.715,185.714z"/>
		<path d="M384.715,185.714c1.564,3.91,5.319,6.289,9.288,6.289c1.236,0,2.493-0.231,3.711-0.718    c5.128-2.052,7.622-7.871,5.571-12.999l-8-20c-2.052-5.129-7.872-7.62-12.999-5.571c-5.128,2.052-7.622,7.871-5.571,12.999    L384.715,185.714z"/>
		<path d="M306,186c0-27.57-22.43-50-50-50s-50,22.43-50,50s22.43,50,50,50S306,213.571,306,186z M256,156    c4.5,0,8.767,1.002,12.602,2.785l-12.837,12.837l-12.69-12.69C246.991,157.054,251.375,156,256,156z M256,216    c-16.542,0-30-13.458-30-30c0-4.625,1.054-9.009,2.932-12.926l19.762,19.762c1.953,1.952,4.512,2.929,7.071,2.929    s5.118-0.977,7.071-2.929l20.076-20.076C284.886,176.757,286,181.25,286,186C286,202.542,272.542,216,256,216z"/>
		<circle cx="216" cy="407" r="10"/>
		<circle cx="296" cy="407" r="10"/>
	</g>
</g>















</svg>
